Amatic-Bold.ufo
<glyph name="ampersand" format="1">
  <advance width="903"/>
  <unicode hex="0026"/>
  <outline>
    <contour>
      <point x="142" y="569" type="line"/>
      <point x="142" y="708"/>
      <point x="176" y="851"/>
      <point x="251" y="969" type="curve"/>
      <point x="283" y="775"/>
      <point x="324" y="518"/>
      <point x="467" y="372" type="curve" smooth="yes"/>
      <point x="478" y="361"/>
      <point x="490" y="351"/>
      <point x="499" y="338" type="curve"/>
      <point x="470" y="308"/>
      <point x="390" y="283"/>
      <point x="349" y="283" type="curve" smooth="yes"/>
      <point x="197" y="283"/>
      <point x="143" y="443"/>
      <point x="143" y="570" type="curve"/>
    </contour>
    <contour>
      <point x="803" y="902" type="line"/>
      <point x="752" y="885"/>
      <point x="627" y="876"/>
      <point x="571" y="876" type="curve"/>
      <point x="552" y="845" type="line"/>
      <point x="556" y="832" type="line"/>
      <point x="552" y="824" type="line"/>
      <point x="561" y="804"/>
      <point x="582" y="789"/>
      <point x="605" y="789" type="curve"/>
      <point x="605" y="780" type="line" smooth="yes"/>
      <point x="605" y="657"/>
      <point x="591" y="532"/>
      <point x="541" y="418" type="curve"/>
      <point x="461" y="506"/>
      <point x="326" y="963"/>
      <point x="326" y="1086" type="curve" smooth="yes"/>
      <point x="326" y="1116"/>
      <point x="363" y="1157"/>
      <point x="378" y="1184" type="curve" smooth="yes"/>
      <point x="424" y="1268"/>
      <point x="441" y="1365"/>
      <point x="482" y="1452" type="curve"/>
      <point x="479" y="1466"/>
      <point x="477" y="1481"/>
      <point x="477" y="1496" type="curve" smooth="yes"/>
      <point x="477" y="1530"/>
      <point x="484" y="1565"/>
      <point x="484" y="1600" type="curve" smooth="yes"/>
      <point x="484" y="1682"/>
      <point x="374" y="1728"/>
      <point x="305" y="1728" type="curve" smooth="yes"/>
      <point x="233" y="1728"/>
      <point x="216" y="1632"/>
      <point x="216" y="1576" type="curve" smooth="yes"/>
      <point x="216" y="1406" type="line" smooth="yes"/>
      <point x="216" y="1312"/>
      <point x="229" y="1219"/>
      <point x="230" y="1125" type="curve"/>
      <point x="121" y="913"/>
      <point x="48" y="780"/>
      <point x="48" y="534" type="curve" smooth="yes"/>
      <point x="48" y="382"/>
      <point x="165" y="198"/>
      <point x="331" y="198" type="curve" smooth="yes"/>
      <point x="419" y="198"/>
      <point x="490" y="227"/>
      <point x="562" y="276" type="curve"/>
      <point x="621" y="233"/>
      <point x="686" y="199"/>
      <point x="760" y="199" type="curve" smooth="yes"/>
      <point x="809" y="199"/>
      <point x="864" y="206"/>
      <point x="864" y="267" type="curve"/>
      <point x="826" y="298" type="line"/>
      <point x="798" y="298"/>
      <point x="771" y="292"/>
      <point x="743" y="292" type="curve" smooth="yes"/>
      <point x="693" y="292"/>
      <point x="647" y="320"/>
      <point x="613" y="355" type="curve"/>
      <point x="658" y="447"/>
      <point x="682" y="547"/>
      <point x="691" y="649" type="curve"/>
      <point x="768" y="572" type="line"/>
      <point x="768" y="629" type="line"/>
      <point x="743" y="654" type="line"/>
      <point x="692" y="654" type="line"/>
      <point x="695" y="700"/>
      <point x="697" y="747"/>
      <point x="697" y="793" type="curve"/>
      <point x="748" y="792" type="line" smooth="yes"/>
      <point x="784" y="791"/>
      <point x="861" y="798"/>
      <point x="861" y="848" type="curve" smooth="yes"/>
      <point x="861" y="882"/>
      <point x="829" y="898"/>
      <point x="800" y="903" type="curve" smooth="yes"/>
    </contour>
    <contour>
      <point x="309" y="1471" type="curve"/>
      <point x="310" y="1580" type="line"/>
      <point x="318" y="1598"/>
      <point x="326" y="1617"/>
      <point x="342" y="1630" type="curve"/>
      <point x="389" y="1628"/>
      <point x="392" y="1566"/>
      <point x="392" y="1531" type="curve" smooth="yes"/>
      <point x="392" y="1461"/>
      <point x="343" y="1328"/>
      <point x="312" y="1263" type="curve"/>
      <point x="312" y="1271"/>
      <point x="312" y="1278"/>
      <point x="312" y="1286" type="curve" smooth="yes"/>
      <point x="312" y="1348"/>
      <point x="309" y="1409"/>
    </contour>
  </outline>
</glyph>
<glyph name="zero" format="1">
  <advance width="567"/>
  <unicode hex="0030"/>
  <outline>
    <contour>
      <point x="71" y="937" type="curve"/>
      <point x="71" y="812" type="line"/>
      <point x="64" y="804" type="line"/>
      <point x="80" y="649"/>
      <point x="82" y="7"/>
      <point x="303" y="7" type="curve" smooth="yes"/>
      <point x="515" y="7"/>
      <point x="523" y="373"/>
      <point x="523" y="521" type="curve" smooth="yes"/>
      <point x="523" y="747"/>
      <point x="487" y="971"/>
      <point x="457" y="1195" type="curve" smooth="yes"/>
      <point x="439" y="1329"/>
      <point x="435" y="1454"/>
      <point x="308" y="1534" type="curve"/>
      <point x="284" y="1548"/>
      <point x="257" y="1563"/>
      <point x="229" y="1563" type="curve" smooth="yes"/>
      <point x="68" y="1563"/>
      <point x="116" y="1474"/>
      <point x="61" y="1373" type="curve"/>
      <point x="59" y="1018" type="line" smooth="yes"/>
      <point x="59" y="990"/>
      <point x="61" y="963"/>
    </contour>
    <contour>
      <point x="428" y="568" type="curve" smooth="yes"/>
      <point x="428" y="497"/>
      <point x="409" y="100"/>
      <point x="322" y="100" type="curve" smooth="yes"/>
      <point x="190" y="100"/>
      <point x="182" y="685"/>
      <point x="182" y="790" type="curve" smooth="yes"/>
      <point x="182" y="857"/>
      <point x="161" y="923"/>
      <point x="161" y="990" type="curve" smooth="yes"/>
      <point x="161" y="1125"/>
      <point x="153" y="1260"/>
      <point x="153" y="1395" type="curve" smooth="yes"/>
      <point x="153" y="1451"/>
      <point x="161" y="1481"/>
      <point x="206" y="1518" type="curve"/>
      <point x="380" y="1494"/>
      <point x="321" y="1319"/>
      <point x="364" y="1200" type="curve"/>
      <point x="364" y="1112" type="line"/>
      <point x="415" y="989"/>
      <point x="428" y="706"/>
    </contour>
  </outline>
</glyph>
<glyph name="five" format="1">
  <advance width="525"/>
  <unicode hex="0035"/>
  <outline>
    <contour>
      <point x="80" y="1008" type="curve" smooth="yes"/>
      <point x="80" y="955"/>
      <point x="87" y="891"/>
      <point x="155" y="891" type="curve" smooth="yes"/>
      <point x="176" y="891"/>
      <point x="193" y="905"/>
      <point x="214" y="907" type="curve"/>
      <point x="222" y="914" type="line"/>
      <point x="262" y="914" type="line" smooth="yes"/>
      <point x="365" y="914"/>
      <point x="388" y="415"/>
      <point x="388" y="328" type="curve" smooth="yes"/>
      <point x="388" y="259"/>
      <point x="356" y="75"/>
      <point x="282" y="50" type="curve"/>
      <point x="267" y="61"/>
      <point x="248" y="67"/>
      <point x="229" y="67" type="curve" smooth="yes"/>
      <point x="201" y="67"/>
      <point x="166" y="54"/>
      <point x="166" y="21" type="curve" smooth="yes"/>
      <point x="166" y="-31"/>
      <point x="229" y="-37"/>
      <point x="278" y="-37" type="curve" smooth="yes"/>
      <point x="291" y="-37"/>
      <point x="303" y="-36"/>
      <point x="313" y="-36" type="curve"/>
      <point x="486" y="95"/>
      <point x="486" y="234"/>
      <point x="486" y="434" type="curve" smooth="yes"/>
      <point x="486" y="553"/>
      <point x="460" y="895"/>
      <point x="358" y="965" type="curve" smooth="yes"/>
      <point x="313" y="996"/>
      <point x="245" y="996"/>
      <point x="192" y="1002" type="curve"/>
      <point x="176" y="1164"/>
      <point x="158" y="1325"/>
      <point x="152" y="1488" type="curve"/>
      <point x="239" y="1477" type="line"/>
      <point x="246" y="1482" type="line"/>
      <point x="290" y="1482" type="line"/>
      <point x="328" y="1513" type="line"/>
      <point x="328" y="1524" type="line" smooth="yes"/>
      <point x="328" y="1572"/>
      <point x="280" y="1576"/>
      <point x="243" y="1576" type="curve" smooth="yes"/>
      <point x="76" y="1574" type="line"/>
      <point x="41" y="1540" type="line"/>
      <point x="63" y="1398"/>
      <point x="91" y="1256"/>
      <point x="91" y="1112" type="curve" smooth="yes"/>
      <point x="91" y="1077"/>
      <point x="80" y="1043"/>
    </contour>
  </outline>
</glyph>
<glyph name="six" format="1">
  <advance width="477"/>
  <unicode hex="0036"/>
  <outline>
    <contour>
      <point x="342" y="212" type="curve" smooth="yes"/>
      <point x="342" y="177"/>
      <point x="341" y="73"/>
      <point x="289" y="73" type="curve" smooth="yes"/>
      <point x="212" y="73"/>
      <point x="217" y="152"/>
      <point x="210" y="207" type="curve" smooth="yes"/>
      <point x="184" y="396"/>
      <point x="159" y="578"/>
      <point x="159" y="770" type="curve" smooth="yes"/>
      <point x="159" y="814"/>
      <point x="162" y="853"/>
      <point x="204" y="882" type="curve"/>
      <point x="322" y="860"/>
      <point x="342" y="320"/>
    </contour>
    <contour>
      <point x="273" y="-14" type="curve" smooth="yes"/>
      <point x="428" y="-14"/>
      <point x="438" y="114"/>
      <point x="438" y="236" type="curve" smooth="yes"/>
      <point x="438" y="396"/>
      <point x="428" y="952"/>
      <point x="192" y="952" type="curve" smooth="yes"/>
      <point x="182" y="952"/>
      <point x="171" y="951"/>
      <point x="160" y="949" type="curve"/>
      <point x="164" y="1044"/>
      <point x="192" y="1419"/>
      <point x="249" y="1475" type="curve"/>
      <point x="282" y="1482"/>
      <point x="327" y="1505"/>
      <point x="327" y="1545" type="curve" smooth="yes"/>
      <point x="327" y="1567"/>
      <point x="299" y="1586"/>
      <point x="279" y="1586" type="curve" smooth="yes"/>
      <point x="58" y="1586"/>
      <point x="59" y="1030"/>
      <point x="59" y="880" type="curve" smooth="yes"/>
      <point x="59" y="715"/>
      <point x="70" y="554"/>
      <point x="90" y="391" type="curve" smooth="yes"/>
      <point x="106" y="262"/>
      <point x="81" y="-14"/>
    </contour>
  </outline>
</glyph>
<glyph name="seven" format="1">
  <advance width="411"/>
  <unicode hex="0037"/>
  <outline>
    <contour>
      <point x="219" y="1498" type="curve" smooth="yes"/>
      <point x="235" y="1498"/>
      <point x="251" y="1496"/>
      <point x="267" y="1494" type="curve"/>
      <point x="265" y="1401"/>
      <point x="244" y="1309"/>
      <point x="232" y="1217" type="curve" smooth="yes"/>
      <point x="187" y="873"/>
      <point x="172" y="519"/>
      <point x="83" y="182" type="curve" smooth="yes"/>
      <point x="69" y="129"/>
      <point x="46" y="80"/>
      <point x="46" y="24" type="curve"/>
      <point x="85" y="-11" type="line"/>
      <point x="95" y="-11" type="line" smooth="yes"/>
      <point x="145" y="-11"/>
      <point x="165" y="55"/>
      <point x="165" y="101" type="curve" smooth="yes"/>
      <point x="165" y="108"/>
      <point x="165" y="114"/>
      <point x="164" y="119" type="curve"/>
      <point x="257" y="385"/>
      <point x="331" y="1086"/>
      <point x="356" y="1390" type="curve" smooth="yes"/>
      <point x="360" y="1435"/>
      <point x="362" y="1479"/>
      <point x="371" y="1523" type="curve"/>
      <point x="357" y="1578"/>
      <point x="313" y="1582"/>
      <point x="267" y="1582" type="curve" smooth="yes"/>
      <point x="253" y="1582"/>
      <point x="245" y="1582"/>
      <point x="229" y="1582" type="curve" smooth="yes"/>
      <point x="181" y="1582"/>
      <point x="41" y="1580"/>
      <point x="41" y="1549" type="curve" smooth="yes"/>
      <point x="41" y="1522"/>
      <point x="67" y="1499"/>
      <point x="89" y="1489" type="curve"/>
      <point x="132" y="1493"/>
      <point x="176" y="1498"/>
    </contour>
  </outline>
</glyph>
<glyph name="nine" format="1">
  <advance width="473"/>
  <unicode hex="0039"/>
  <outline>
    <contour>
      <point x="139" y="1247" type="curve" smooth="yes"/>
      <point x="139" y="1306"/>
      <point x="157" y="1527"/>
      <point x="238" y="1527" type="curve" smooth="yes"/>
      <point x="302" y="1527"/>
      <point x="311" y="1480"/>
      <point x="311" y="1427" type="curve" smooth="yes"/>
      <point x="311" y="1288"/>
      <point x="310" y="1148"/>
      <point x="302" y="1009" type="curve"/>
      <point x="216" y="1057"/>
      <point x="168" y="1047"/>
      <point x="155" y="1162" type="curve"/>
      <point x="143" y="1178"/>
      <point x="139" y="1228"/>
    </contour>
    <contour>
      <point x="384" y="237" type="line"/>
      <point x="384" y="631"/>
      <point x="409" y="1026"/>
      <point x="409" y="1420" type="curve" smooth="yes"/>
      <point x="409" y="1547"/>
      <point x="378" y="1614"/>
      <point x="237" y="1614" type="curve" smooth="yes"/>
      <point x="66" y="1614"/>
      <point x="39" y="1370"/>
      <point x="39" y="1243" type="curve" smooth="yes"/>
      <point x="39" y="1087"/>
      <point x="151" y="965"/>
      <point x="300" y="931" type="curve"/>
      <point x="301" y="848"/>
      <point x="304" y="772"/>
      <point x="304" y="686" type="curve" smooth="yes"/>
      <point x="304" y="502"/>
      <point x="302" y="94"/>
      <point x="272" y="4" type="curve"/>
      <point x="304" y="-34" type="line"/>
      <point x="315" y="-34" type="line" smooth="yes"/>
      <point x="365" y="-34"/>
      <point x="372" y="9"/>
      <point x="372" y="49" type="curve" smooth="yes"/>
      <point x="372" y="64"/>
      <point x="371" y="78"/>
      <point x="371" y="90" type="curve" smooth="yes"/>
      <point x="371" y="139"/>
      <point x="384" y="188"/>
      <point x="385" y="237" type="curve"/>
    </contour>
  </outline>
</glyph>
<glyph name="J" format="1">
  <advance width="419"/>
  <unicode hex="004A"/>
  <outline>
    <contour>
      <point x="318" y="152" type="line"/>
      <point x="318" y="207"/>
      <point x="328" y="260"/>
      <point x="328" y="315" type="curve" smooth="yes"/>
      <point x="328" y="581"/>
      <point x="291" y="846"/>
      <point x="291" y="1112" type="curve" smooth="yes"/>
      <point x="291" y="1218"/>
      <point x="267" y="1323"/>
      <point x="267" y="1429" type="curve"/>
      <point x="268" y="1445" type="line"/>
      <point x="295" y="1444" type="line" smooth="yes"/>
      <point x="330" y="1443"/>
      <point x="386" y="1451"/>
      <point x="386" y="1497" type="curve" smooth="yes"/>
      <point x="386" y="1548"/>
      <point x="336" y="1553"/>
      <point x="294" y="1553" type="curve" smooth="yes"/>
      <point x="285" y="1553"/>
      <point x="276" y="1553"/>
      <point x="268" y="1553" type="curve" smooth="yes"/>
      <point x="219" y="1553"/>
      <point x="23" y="1553"/>
      <point x="23" y="1481" type="curve" smooth="yes"/>
      <point x="23" y="1453"/>
      <point x="47" y="1429"/>
      <point x="75" y="1429" type="curve" smooth="yes"/>
      <point x="105" y="1429"/>
      <point x="135" y="1439"/>
      <point x="164" y="1445" type="curve"/>
      <point x="199" y="1233"/>
      <point x="189" y="1016"/>
      <point x="194" y="802" type="curve" smooth="yes"/>
      <point x="198" y="615"/>
      <point x="217" y="428"/>
      <point x="217" y="241" type="curve" smooth="yes"/>
      <point x="217" y="168"/>
      <point x="210" y="93"/>
      <point x="181" y="25" type="curve"/>
      <point x="126" y="25" type="line"/>
      <point x="164" y="-11" type="line"/>
      <point x="135" y="-48" type="line"/>
      <point x="105" y="-61"/>
      <point x="55" y="-94"/>
      <point x="55" y="-131" type="curve" smooth="yes"/>
      <point x="55" y="-175"/>
      <point x="89" y="-194"/>
      <point x="129" y="-194" type="curve"/>
      <point x="297" y="-82"/>
      <point x="248" y="-25"/>
      <point x="327" y="122" type="curve"/>
      <point x="319" y="158" type="line"/>
    </contour>
  </outline>
</glyph>
<glyph name="M" format="1">
  <advance width="824"/>
  <unicode hex="004D"/>
  <outline>
    <contour>
      <point x="599" y="1529" type="line"/>
      <point x="603" y="1517" type="line"/>
      <point x="584" y="1188"/>
      <point x="488" y="850"/>
      <point x="420" y="528" type="curve"/>
      <point x="389" y="674"/>
      <point x="245" y="1546"/>
      <point x="136" y="1554" type="curve"/>
      <point x="79" y="1522" type="line"/>
      <point x="77" y="1434"/>
      <point x="76" y="1346"/>
      <point x="76" y="1257" type="curve" smooth="yes"/>
      <point x="76" y="993"/>
      <point x="83" y="729"/>
      <point x="83" y="464" type="curve" smooth="yes"/>
      <point x="83" y="353"/>
      <point x="73" y="243"/>
      <point x="73" y="132" type="curve" smooth="yes"/>
      <point x="73" y="68"/>
      <point x="85" y="6"/>
      <point x="163" y="6" type="curve"/>
      <point x="183" y="27"/>
      <point x="194" y="54"/>
      <point x="194" y="83" type="curve" smooth="yes"/>
      <point x="194" y="364"/>
      <point x="177" y="644"/>
      <point x="177" y="925" type="curve" smooth="yes"/>
      <point x="177" y="1007"/>
      <point x="179" y="1090"/>
      <point x="181" y="1172" type="curve"/>
      <point x="235" y="931"/>
      <point x="332" y="660"/>
      <point x="332" y="413" type="curve" smooth="yes"/>
      <point x="332" y="364"/>
      <point x="332" y="222"/>
      <point x="405" y="222" type="curve" smooth="yes"/>
      <point x="483" y="222"/>
      <point x="485" y="347"/>
      <point x="496" y="401" type="curve"/>
      <point x="488" y="414" type="line"/>
      <point x="492" y="443"/>
      <point x="504" y="469"/>
      <point x="514" y="497" type="curve" smooth="yes"/>
      <point x="569" y="656"/>
      <point x="592" y="828"/>
      <point x="622" y="993" type="curve"/>
      <point x="620" y="889" type="line"/>
      <point x="620" y="602"/>
      <point x="622" y="314"/>
      <point x="630" y="27" type="curve"/>
      <point x="636" y="13" type="line"/>
      <point x="632" y="-33" type="line"/>
      <point x="679" y="-53" type="line"/>
      <point x="679" y="-70" type="line"/>
      <point x="745" y="-42"/>
      <point x="756" y="1"/>
      <point x="756" y="67" type="curve" smooth="yes"/>
      <point x="756" y="557"/>
      <point x="719" y="1045"/>
      <point x="719" y="1535" type="curve" smooth="yes"/>
      <point x="719" y="1560"/>
      <point x="697" y="1587"/>
      <point x="671" y="1587" type="curve" smooth="yes"/>
      <point x="636" y="1587"/>
      <point x="604" y="1565"/>
      <point x="598" y="1529" type="curve"/>
    </contour>
  </outline>
</glyph>
<glyph name="V" format="1">
  <advance width="620"/>
  <unicode hex="0056"/>
  <outline>
    <contour>
      <point x="534" y="1569" type="curve"/>
      <point x="577" y="1546" type="line"/>
      <point x="567" y="1454"/>
      <point x="566" y="1355"/>
      <point x="544" y="1265" type="curve" smooth="yes"/>
      <point x="467" y="954"/>
      <point x="451" y="607"/>
      <point x="424" y="288" type="curve" smooth="yes"/>
      <point x="415" y="180"/>
      <point x="437" y="-34"/>
      <point x="350" y="-34" type="curve" smooth="yes"/>
      <point x="332" y="-34"/>
      <point x="314" y="-26"/>
      <point x="302" y="-12" type="curve"/>
      <point x="212" y="359"/>
      <point x="154" y="1254"/>
      <point x="31" y="1523" type="curve"/>
      <point x="39" y="1550"/>
      <point x="64" y="1563"/>
      <point x="91" y="1563" type="curve" smooth="yes"/>
      <point x="144" y="1563"/>
      <point x="146" y="1501"/>
      <point x="152" y="1465" type="curve" smooth="yes"/>
      <point x="212" y="1089"/>
      <point x="258" y="712"/>
      <point x="334" y="339" type="curve"/>
      <point x="379" y="733"/>
      <point x="459" y="1130"/>
      <point x="459" y="1528" type="curve"/>
      <point x="478" y="1552"/>
      <point x="503" y="1569"/>
    </contour>
  </outline>
</glyph>
<glyph name="grave" format="1">
  <advance width="506"/>
  <unicode hex="0060"/>
  <outline>
    <contour>
      <point x="180" y="1598" type="curve"/>
      <point x="219" y="1583"/>
      <point x="358" y="1525"/>
      <point x="390" y="1525" type="curve" smooth="yes"/>
      <point x="412" y="1525"/>
      <point x="438" y="1541"/>
      <point x="438" y="1565" type="curve" smooth="yes"/>
      <point x="438" y="1634"/>
      <point x="252" y="1682"/>
      <point x="198" y="1701" type="curve"/>
      <point x="167" y="1728"/>
      <point x="123" y="1726"/>
      <point x="84" y="1726" type="curve"/>
      <point x="61" y="1712"/>
      <point x="56" y="1683"/>
      <point x="56" y="1658" type="curve" smooth="yes"/>
      <point x="56" y="1607"/>
      <point x="102" y="1596"/>
      <point x="145" y="1596" type="curve" smooth="yes"/>
      <point x="157" y="1596"/>
      <point x="169" y="1597"/>
    </contour>
  </outline>
</glyph>
<glyph name="a" format="1">
  <advance width="621"/>
  <unicode hex="0061"/>
  <outline>
    <contour>
      <point x="576" y="41" type="line"/>
      <point x="576" y="99"/>
      <point x="540" y="239"/>
      <point x="540" y="290" type="curve" smooth="yes"/>
      <point x="540" y="303"/>
      <point x="551" y="318"/>
      <point x="551" y="331" type="curve" smooth="yes"/>
      <point x="551" y="401"/>
      <point x="525" y="468"/>
      <point x="512" y="536" type="curve" smooth="yes"/>
      <point x="461" y="794"/>
      <point x="435" y="1058"/>
      <point x="435" y="1321" type="curve" smooth="yes"/>
      <point x="435" y="1359"/>
      <point x="397" y="1373"/>
      <point x="365" y="1373" type="curve"/>
      <point x="333" y="1361" type="line"/>
      <point x="296" y="1363" type="line"/>
      <point x="259" y="1307"/>
      <point x="261" y="1169"/>
      <point x="252" y="1100" type="curve" smooth="yes"/>
      <point x="236" y="980"/>
      <point x="201" y="863"/>
      <point x="180" y="744" type="curve" smooth="yes"/>
      <point x="140" y="516"/>
      <point x="105" y="286"/>
      <point x="47" y="62" type="curve" smooth="yes"/>
      <point x="46" y="57"/>
      <point x="42" y="49"/>
      <point x="42" y="44" type="curve" smooth="yes"/>
      <point x="42" y="11"/>
      <point x="77" y="-11"/>
      <point x="107" y="-11" type="curve" smooth="yes"/>
      <point x="189" y="-11"/>
      <point x="206" y="254"/>
      <point x="212" y="314" type="curve"/>
      <point x="239" y="314"/>
      <point x="268" y="313"/>
      <point x="293" y="302" type="curve"/>
      <point x="361" y="304" type="line" smooth="yes"/>
      <point x="382" y="304"/>
      <point x="403" y="299"/>
      <point x="424" y="298" type="curve"/>
      <point x="438" y="216"/>
      <point x="454" y="133"/>
      <point x="454" y="49" type="curve" smooth="yes"/>
      <point x="454" y="-10"/>
      <point x="496" y="-19"/>
      <point x="545" y="-19" type="curve"/>
      <point x="568" y="-10"/>
      <point x="579" y="15"/>
      <point x="579" y="39" type="curve"/>
    </contour>
    <contour>
      <point x="411" y="375" type="curve"/>
      <point x="367" y="378"/>
      <point x="265" y="385"/>
      <point x="230" y="408" type="curve"/>
      <point x="233" y="619"/>
      <point x="307" y="832"/>
      <point x="350" y="1038" type="curve"/>
      <point x="370" y="843"/>
      <point x="405" y="648"/>
      <point x="405" y="451" type="curve" smooth="yes"/>
      <point x="405" y="425"/>
      <point x="406" y="400"/>
    </contour>
  </outline>
</glyph>
<glyph name="c" format="1">
  <advance width="505"/>
  <unicode hex="0063"/>
  <outline>
    <contour>
      <point x="468" y="52" type="curve" smooth="yes"/>
      <point x="468" y="85"/>
      <point x="434" y="97"/>
      <point x="406" y="97" type="curve"/>
      <point x="394" y="86"/>
      <point x="378" y="79"/>
      <point x="362" y="79" type="curve" smooth="yes"/>
      <point x="180" y="79"/>
      <point x="168" y="286"/>
      <point x="168" y="422" type="curve" smooth="yes"/>
      <point x="168" y="554"/>
      <point x="177" y="685"/>
      <point x="177" y="817" type="curve"/>
      <point x="181" y="827" type="line"/>
      <point x="181" y="913"/>
      <point x="199" y="1258"/>
      <point x="319" y="1258" type="curve" smooth="yes"/>
      <point x="415" y="1258" type="line"/>
      <point x="455" y="1303" type="line"/>
      <point x="455" y="1311" type="line" smooth="yes"/>
      <point x="455" y="1340"/>
      <point x="425" y="1364"/>
      <point x="396" y="1364" type="curve" smooth="yes"/>
      <point x="304" y="1364" type="line"/>
      <point x="267" y="1344"/>
      <point x="224" y="1335"/>
      <point x="190" y="1310" type="curve" smooth="yes"/>
      <point x="58" y="1213"/>
      <point x="46" y="847"/>
      <point x="46" y="615" type="curve" smooth="yes"/>
      <point x="46" y="569"/>
      <point x="47" y="527"/>
      <point x="47" y="495" type="curve" smooth="yes"/>
      <point x="47" y="359"/>
      <point x="55" y="97"/>
      <point x="183" y="14" type="curve" smooth="yes"/>
      <point x="217" y="-8"/>
      <point x="260" y="-10"/>
      <point x="293" y="-33" type="curve"/>
      <point x="372" y="-33" type="line"/>
      <point x="407" y="-17"/>
      <point x="468" y="5"/>
    </contour>
  </outline>
</glyph>
<glyph name="f" format="1">
  <advance width="483"/>
  <unicode hex="0066"/>
  <outline>
    <contour>
      <point x="200" y="754" type="line"/>
      <point x="200" y="808" type="line" smooth="yes"/>
      <point x="200" y="945"/>
      <point x="219" y="1082"/>
      <point x="220" y="1219" type="curve"/>
      <point x="229" y="1243" type="line"/>
      <point x="244" y="1243" type="line" smooth="yes"/>
      <point x="280" y="1243"/>
      <point x="318" y="1239"/>
      <point x="351" y="1223" type="curve"/>
      <point x="358" y="1223" type="line" smooth="yes"/>
      <point x="397" y="1223"/>
      <point x="455" y="1229"/>
      <point x="455" y="1281" type="curve" smooth="yes"/>
      <point x="455" y="1358"/>
      <point x="240" y="1364"/>
      <point x="186" y="1364" type="curve" smooth="yes"/>
      <point x="150" y="1364"/>
      <point x="107" y="1344"/>
      <point x="107" y="1303" type="curve" smooth="yes"/>
      <point x="107" y="1210"/>
      <point x="104" y="1118"/>
      <point x="99" y="1025" type="curve"/>
      <point x="94" y="1025" type="line"/>
      <point x="68" y="1000" type="line"/>
      <point x="94" y="975" type="line"/>
      <point x="97" y="975" type="line"/>
      <point x="80" y="655"/>
      <point x="88" y="333"/>
      <point x="59" y="13" type="curve"/>
      <point x="116" y="-30" type="line"/>
      <point x="124" y="-30" type="line" smooth="yes"/>
      <point x="180" y="-30"/>
      <point x="197" y="25"/>
      <point x="197" y="72" type="curve" smooth="yes"/>
      <point x="197" y="166"/>
      <point x="185" y="260"/>
      <point x="185" y="354" type="curve" smooth="yes"/>
      <point x="185" y="578" type="line" smooth="yes"/>
      <point x="185" y="603"/>
      <point x="190" y="628"/>
      <point x="198" y="652" type="curve"/>
      <point x="220" y="645"/>
      <point x="243" y="640"/>
      <point x="266" y="640" type="curve" smooth="yes"/>
      <point x="300" y="640"/>
      <point x="338" y="662"/>
      <point x="338" y="700" type="curve" smooth="yes"/>
      <point x="338" y="747"/>
      <point x="283" y="754"/>
      <point x="239" y="754" type="curve" smooth="yes"/>
      <point x="224" y="754"/>
      <point x="211" y="753"/>
      <point x="201" y="753" type="curve"/>
    </contour>
  </outline>
</glyph>
<glyph name="m" format="1">
  <advance width="1013"/>
  <unicode hex="006D"/>
  <outline>
    <contour>
      <point x="933" y="207" type="line"/>
      <point x="933" y="279"/>
      <point x="937" y="351"/>
      <point x="937" y="423" type="curve" smooth="yes"/>
      <point x="937" y="492"/>
      <point x="922" y="569"/>
      <point x="920" y="640" type="curve" smooth="yes"/>
      <point x="912" y="857"/>
      <point x="911" y="1075"/>
      <point x="911" y="1292" type="curve" smooth="yes"/>
      <point x="911" y="1329"/>
      <point x="867" y="1348"/>
      <point x="836" y="1348" type="curve" smooth="yes"/>
      <point x="754" y="1348"/>
      <point x="748" y="1238"/>
      <point x="738" y="1179" type="curve" smooth="yes"/>
      <point x="691" y="904"/>
      <point x="604" y="636"/>
      <point x="522" y="370" type="curve"/>
      <point x="488" y="550"/>
      <point x="431" y="726"/>
      <point x="380" y="902" type="curve" smooth="yes"/>
      <point x="349" y="1010"/>
      <point x="280" y="1105"/>
      <point x="263" y="1217" type="curve" smooth="yes"/>
      <point x="255" y="1270"/>
      <point x="266" y="1351"/>
      <point x="188" y="1351" type="curve" smooth="yes"/>
      <point x="158" y="1351"/>
      <point x="109" y="1340"/>
      <point x="109" y="1301" type="curve" smooth="yes"/>
      <point x="109" y="1288"/>
      <point x="114" y="1272"/>
      <point x="121" y="1261" type="curve"/>
      <point x="121" y="843"/>
      <point x="58" y="427"/>
      <point x="58" y="9" type="curve" smooth="yes"/>
      <point x="58" y="-20"/>
      <point x="91" y="-40"/>
      <point x="116" y="-40" type="curve" smooth="yes"/>
      <point x="174" y="-40"/>
      <point x="184" y="-10"/>
      <point x="184" y="28" type="curve" smooth="yes"/>
      <point x="184" y="47"/>
      <point x="181" y="69"/>
      <point x="181" y="89" type="curve" smooth="yes"/>
      <point x="181" y="415"/>
      <point x="203" y="740"/>
      <point x="220" y="1065" type="curve"/>
      <point x="273" y="904"/>
      <point x="426" y="348"/>
      <point x="426" y="202" type="curve" smooth="yes"/>
      <point x="426" y="149"/>
      <point x="457" y="114"/>
      <point x="511" y="114" type="curve" smooth="yes"/>
      <point x="589" y="114"/>
      <point x="587" y="236"/>
      <point x="597" y="289" type="curve" smooth="yes"/>
      <point x="644" y="549"/>
      <point x="720" y="808"/>
      <point x="803" y="1059" type="curve"/>
      <point x="803" y="975"/>
      <point x="795" y="890"/>
      <point x="795" y="806" type="curve" smooth="yes"/>
      <point x="795" y="750"/>
      <point x="807" y="695"/>
      <point x="812" y="639" type="curve" smooth="yes"/>
      <point x="823" y="521"/>
      <point x="825" y="402"/>
      <point x="825" y="283" type="curve" smooth="yes"/>
      <point x="825" y="196"/>
      <point x="824" y="108"/>
      <point x="824" y="21" type="curve" smooth="yes"/>
      <point x="824" y="-21"/>
      <point x="829" y="-107"/>
      <point x="888" y="-107" type="curve" smooth="yes"/>
      <point x="932" y="-107"/>
      <point x="957" y="-58"/>
      <point x="957" y="-19" type="curve" smooth="yes"/>
      <point x="957" y="-6"/>
      <point x="953" y="8"/>
      <point x="948" y="20" type="curve"/>
      <point x="948" y="23"/>
      <point x="932" y="176"/>
      <point x="932" y="206" type="curve"/>
    </contour>
  </outline>
</glyph>
<glyph name="z" format="1">
  <advance width="493"/>
  <unicode hex="007A"/>
  <outline>
    <contour>
      <point x="278" y="111" type="line"/>
      <point x="249" y="111"/>
      <point x="221" y="105"/>
      <point x="192" y="105" type="curve"/>
      <point x="157" y="107" type="line"/>
      <point x="168" y="393"/>
      <point x="308" y="653"/>
      <point x="353" y="933" type="curve" smooth="yes"/>
      <point x="373" y="1059"/>
      <point x="450" y="1172"/>
      <point x="450" y="1302" type="curve" smooth="yes"/>
      <point x="450" y="1364"/>
      <point x="367" y="1359"/>
      <point x="332" y="1359" type="curve" smooth="yes"/>
      <point x="267" y="1359"/>
      <point x="124" y="1356"/>
      <point x="124" y="1301" type="curve" smooth="yes"/>
      <point x="124" y="1272"/>
      <point x="147" y="1244"/>
      <point x="177" y="1244" type="curve" smooth="yes"/>
      <point x="233" y="1244"/>
      <point x="288" y="1254"/>
      <point x="344" y="1256" type="curve"/>
      <point x="334" y="1045"/>
      <point x="237" y="853"/>
      <point x="185" y="651" type="curve" smooth="yes"/>
      <point x="158" y="546"/>
      <point x="141" y="439"/>
      <point x="112" y="335" type="curve" smooth="yes"/>
      <point x="92" y="263"/>
      <point x="41" y="115"/>
      <point x="41" y="48" type="curve" smooth="yes"/>
      <point x="41" y="18"/>
      <point x="67" y="-4"/>
      <point x="96" y="-4" type="curve" smooth="yes"/>
      <point x="123" y="-4"/>
      <point x="142" y="18"/>
      <point x="169" y="18" type="curve" smooth="yes"/>
      <point x="209" y="18"/>
      <point x="250" y="12"/>
      <point x="290" y="12" type="curve" smooth="yes"/>
      <point x="320" y="12"/>
      <point x="361" y="25"/>
      <point x="361" y="62" type="curve" smooth="yes"/>
      <point x="361" y="109"/>
      <point x="313" y="112"/>
      <point x="278" y="112" type="curve"/>
    </contour>
  </outline>
</glyph>
<glyph name="brokenbar" format="1">
  <advance width="467"/>
  <unicode hex="00A6"/>
  <outline>
    <contour>
      <point x="182" y="695" type="curve" smooth="yes"/>
      <point x="156" y="695"/>
      <point x="140" y="668"/>
      <point x="140" y="644" type="curve" smooth="yes"/>
      <point x="139" y="339" type="line"/>
      <point x="142" y="-29" type="line" smooth="yes"/>
      <point x="142" y="-57"/>
      <point x="166" y="-80"/>
      <point x="194" y="-80" type="curve" smooth="yes"/>
      <point x="233" y="-80"/>
      <point x="245" y="-50"/>
      <point x="245" y="-16" type="curve" smooth="yes"/>
      <point x="243" y="621" type="line" smooth="yes"/>
      <point x="243" y="662"/>
      <point x="228" y="695"/>
    </contour>
    <contour>
      <point x="137" y="1020" type="curve" smooth="yes"/>
      <point x="137" y="988"/>
      <point x="136" y="826"/>
      <point x="188" y="826" type="curve" smooth="yes"/>
      <point x="216" y="826"/>
      <point x="240" y="849"/>
      <point x="240" y="877" type="curve" smooth="yes"/>
      <point x="243" y="1285" type="line" smooth="yes"/>
      <point x="243" y="1304"/>
      <point x="245" y="1346"/>
      <point x="245" y="1393" type="curve" smooth="yes"/>
      <point x="245" y="1481"/>
      <point x="238" y="1584"/>
      <point x="200" y="1584" type="curve" smooth="yes"/>
      <point x="152" y="1584"/>
      <point x="129" y="1556"/>
      <point x="129" y="1510" type="curve" smooth="yes"/>
      <point x="129" y="1348"/>
      <point x="137" y="1183"/>
    </contour>
  </outline>
</glyph>
<glyph name="section" format="1">
  <advance width="445"/>
  <unicode hex="00A7"/>
  <outline>
    <contour>
      <point x="395" y="634" type="curve" smooth="yes"/>
      <point x="395" y="943"/>
      <point x="150" y="1046"/>
      <point x="150" y="1277" type="curve" smooth="yes"/>
      <point x="150" y="1405"/>
      <point x="336" y="1308"/>
      <point x="336" y="1392" type="curve" smooth="yes"/>
      <point x="336" y="1430"/>
      <point x="262" y="1443"/>
      <point x="235" y="1443" type="curve" smooth="yes"/>
      <point x="123" y="1443"/>
      <point x="68" y="1385"/>
      <point x="68" y="1275" type="curve" smooth="yes"/>
      <point x="68" y="1186"/>
      <point x="87" y="1099"/>
      <point x="126" y="1018" type="curve"/>
      <point x="65" y="972"/>
      <point x="35" y="895"/>
      <point x="35" y="820" type="curve" smooth="yes"/>
      <point x="35" y="550"/>
      <point x="280" y="457"/>
      <point x="280" y="257" type="curve" smooth="yes"/>
      <point x="280" y="206"/>
      <point x="249" y="110"/>
      <point x="187" y="109" type="curve"/>
      <point x="175" y="116"/>
      <point x="158" y="121"/>
      <point x="144" y="121" type="curve" smooth="yes"/>
      <point x="121" y="121"/>
      <point x="94" y="109"/>
      <point x="94" y="82" type="curve" smooth="yes"/>
      <point x="94" y="33"/>
      <point x="151" y="1"/>
      <point x="195" y="1" type="curve" smooth="yes"/>
      <point x="318" y="1"/>
      <point x="380" y="139"/>
      <point x="380" y="246" type="curve" smooth="yes"/>
      <point x="380" y="326"/>
      <point x="348" y="399"/>
      <point x="306" y="465" type="curve"/>
      <point x="363" y="502"/>
      <point x="395" y="566"/>
    </contour>
    <contour>
      <point x="295" y="649" type="curve" smooth="yes"/>
      <point x="295" y="612"/>
      <point x="274" y="573"/>
      <point x="246" y="549" type="curve"/>
      <point x="192" y="622"/>
      <point x="135" y="701"/>
      <point x="135" y="795" type="curve" smooth="yes"/>
      <point x="135" y="840"/>
      <point x="151" y="890"/>
      <point x="179" y="925" type="curve"/>
      <point x="233" y="840"/>
      <point x="295" y="754"/>
    </contour>
  </outline>
</glyph>
<glyph name="cedilla" format="1">
  <advance width="404"/>
  <unicode hex="00B8"/>
  <outline>
    <contour>
      <point x="82" y="-157" type="curve"/>
      <point x="85" y="-213"/>
      <point x="128" y="-219"/>
      <point x="164" y="-219" type="curve" smooth="yes"/>
      <point x="176" y="-219"/>
      <point x="191" y="-217"/>
      <point x="211" y="-214" type="curve"/>
      <point x="226" y="-228"/>
      <point x="228" y="-249"/>
      <point x="228" y="-266" type="curve" smooth="yes"/>
      <point x="228" y="-305"/>
      <point x="216" y="-383"/>
      <point x="170" y="-401" type="curve"/>
      <point x="151" y="-388"/>
      <point x="127" y="-381"/>
      <point x="104" y="-381" type="curve" smooth="yes"/>
      <point x="80" y="-381"/>
      <point x="58" y="-400"/>
      <point x="58" y="-425" type="curve" smooth="yes"/>
      <point x="58" y="-481"/>
      <point x="123" y="-504"/>
      <point x="170" y="-504" type="curve" smooth="yes"/>
      <point x="260" y="-504"/>
      <point x="349" y="-406"/>
      <point x="349" y="-318" type="curve" smooth="yes"/>
      <point x="349" y="-216"/>
      <point x="312" y="-112"/>
      <point x="200" y="-91" type="curve"/>
      <point x="202" y="-54"/>
      <point x="206" y="-18"/>
      <point x="213" y="18" type="curve"/>
      <point x="101" y="2" type="line"/>
      <point x="101" y="-13"/>
      <point x="101" y="-29"/>
      <point x="101" y="-45" type="curve" smooth="yes"/>
      <point x="101" y="-84"/>
      <point x="82" y="-119"/>
    </contour>
  </outline>
</glyph>
<glyph name="Ograve" format="1">
  <advance width="650"/>
  <unicode hex="00D2"/>
  <outline>
    <contour>
      <point x="552" y="214" type="line"/>
      <point x="550" y="112"/>
      <point x="475" y="-58"/>
      <point x="355" y="-58" type="curve" smooth="yes"/>
      <point x="83" y="-58"/>
      <point x="57" y="608"/>
      <point x="57" y="798" type="curve" smooth="yes"/>
      <point x="57" y="914"/>
      <point x="67" y="1029"/>
      <point x="73" y="1145" type="curve" smooth="yes"/>
      <point x="81" y="1291"/>
      <point x="58" y="1584"/>
      <point x="273" y="1584" type="curve" smooth="yes"/>
      <point x="471" y="1584"/>
      <point x="511" y="1399"/>
      <point x="533" y="1241" type="curve" smooth="yes"/>
      <point x="562" y="1034"/>
      <point x="582" y="826"/>
      <point x="582" y="617" type="curve" smooth="yes"/>
      <point x="582" y="530"/>
      <point x="565" y="445"/>
      <point x="564" y="358" type="curve"/>
      <point x="569" y="349" type="line"/>
      <point x="559" y="305"/>
      <point x="551" y="260"/>
      <point x="551" y="214" type="curve"/>
    </contour>
    <contour>
      <point x="283" y="1476" type="curve" smooth="yes"/>
      <point x="147" y="1476"/>
      <point x="149" y="949"/>
      <point x="149" y="851" type="curve" smooth="yes"/>
      <point x="149" y="719"/>
      <point x="194" y="54"/>
      <point x="359" y="54" type="curve" smooth="yes"/>
      <point x="477" y="54"/>
      <point x="489" y="560"/>
      <point x="489" y="652" type="curve" smooth="yes"/>
      <point x="489" y="796"/>
      <point x="484" y="1476"/>
    </contour>
    <contour>
      <point x="74" y="1763" type="curve"/>
      <point x="113" y="1748"/>
      <point x="252" y="1690"/>
      <point x="284" y="1690" type="curve" smooth="yes"/>
      <point x="306" y="1690"/>
      <point x="332" y="1706"/>
      <point x="332" y="1730" type="curve" smooth="yes"/>
      <point x="332" y="1799"/>
      <point x="146" y="1847"/>
      <point x="92" y="1866" type="curve"/>
      <point x="61" y="1893"/>
      <point x="17" y="1891"/>
      <point x="-22" y="1891" type="curve"/>
      <point x="-45" y="1877"/>
      <point x="-50" y="1848"/>
      <point x="-50" y="1823" type="curve" smooth="yes"/>
      <point x="-50" y="1772"/>
      <point x="-3" y="1761"/>
      <point x="39" y="1761" type="curve" smooth="yes"/>
      <point x="51" y="1761"/>
      <point x="64" y="1762"/>
    </contour>
  </outline>
</glyph>
<glyph name="oacute" format="1">
  <advance width="651"/>
  <unicode hex="00F3"/>
  <outline>
    <contour>
      <point x="226" y="1529" type="line"/>
      <point x="226" y="1490"/>
      <point x="261" y="1475"/>
      <point x="295" y="1475" type="curve"/>
      <point x="360" y="1544"/>
      <point x="475" y="1622"/>
      <point x="563" y="1658" type="curve"/>
      <point x="566" y="1674"/>
      <point x="572" y="1690"/>
      <point x="572" y="1707" type="curve" smooth="yes"/>
      <point x="572" y="1750"/>
      <point x="530" y="1763"/>
      <point x="494" y="1763" type="curve"/>
      <point x="446" y="1718"/>
      <point x="229" y="1586"/>
      <point x="227" y="1531" type="curve"/>
    </contour>
    <contour>
      <point x="173" y="908" type="line"/>
      <point x="194" y="1028"/>
      <point x="182" y="1152"/>
      <point x="211" y="1271" type="curve"/>
      <point x="284" y="1271" type="line" smooth="yes"/>
      <point x="387" y="1271"/>
      <point x="450" y="1172"/>
      <point x="453" y="1078" type="curve"/>
      <point x="447" y="1062" type="line"/>
      <point x="457" y="1042" type="line"/>
      <point x="458" y="883"/>
      <point x="480" y="724"/>
      <point x="480" y="565" type="curve" smooth="yes"/>
      <point x="480" y="455"/>
      <point x="466" y="48"/>
      <point x="309" y="48" type="curve" smooth="yes"/>
      <point x="175" y="48"/>
      <point x="164" y="614"/>
      <point x="164" y="718" type="curve" smooth="yes"/>
      <point x="164" y="781"/>
      <point x="174" y="844"/>
      <point x="174" y="907" type="curve"/>
    </contour>
    <contour>
      <point x="317" y="-37" type="curve" smooth="yes"/>
      <point x="575" y="-37"/>
      <point x="590" y="369"/>
      <point x="590" y="552" type="curve" smooth="yes"/>
      <point x="590" y="629"/>
      <point x="586" y="707"/>
      <point x="586" y="784" type="curve"/>
      <point x="590" y="794" type="line"/>
      <point x="590" y="799" type="line" smooth="yes"/>
      <point x="590" y="933"/>
      <point x="574" y="1123"/>
      <point x="500" y="1238" type="curve" smooth="yes"/>
      <point x="427" y="1352"/>
      <point x="372" y="1320"/>
      <point x="260" y="1354" type="curve"/>
      <point x="247" y="1370"/>
      <point x="226" y="1379"/>
      <point x="206" y="1379" type="curve" smooth="yes"/>
      <point x="51" y="1379"/>
      <point x="52" y="861"/>
      <point x="52" y="752" type="curve" smooth="yes"/>
      <point x="52" y="715" type="line"/>
      <point x="54" y="715"/>
      <point x="55" y="712"/>
      <point x="55" y="705" type="curve" smooth="yes"/>
      <point x="55" y="678"/>
      <point x="53" y="659"/>
      <point x="53" y="627" type="curve" smooth="yes"/>
      <point x="53" y="411"/>
      <point x="84" y="-37"/>
    </contour>
  </outline>
</glyph>
<glyph name="dotaccent" format="1">
  <advance width="295"/>
  <unicode hex="02D9"/>
  <outline>
    <contour>
      <point x="74" y="1463" type="curve" smooth="yes"/>
      <point x="74" y="1426"/>
      <point x="105" y="1390"/>
      <point x="143" y="1390" type="curve" smooth="yes"/>
      <point x="188" y="1390"/>
      <point x="224" y="1418"/>
      <point x="224" y="1465" type="curve" smooth="yes"/>
      <point x="224" y="1503"/>
      <point x="190" y="1542"/>
      <point x="151" y="1542" type="curve" smooth="yes"/>
      <point x="110" y="1542"/>
      <point x="74" y="1504"/>
    </contour>
  </outline>
</glyph>
<glyph name="hungarumlaut" format="1">
  <advance width="1183"/>
  <unicode hex="02DD"/>
  <outline>
    <contour>
      <point x="456" y="-19" type="curve"/>
      <point x="664" y="106"/>
      <point x="888" y="259"/>
      <point x="1113" y="346" type="curve"/>
      <point x="1132" y="380" type="line"/>
      <point x="1121" y="420"/>
      <point x="1085" y="460"/>
      <point x="1040" y="460" type="curve" smooth="yes"/>
      <point x="962" y="460"/>
      <point x="406" y="92"/>
      <point x="406" y="40" type="curve" smooth="yes"/>
      <point x="406" y="9"/>
      <point x="422" y="-19"/>
    </contour>
    <contour>
      <point x="680" y="364" type="curve" smooth="yes"/>
      <point x="680" y="402"/>
      <point x="646" y="430"/>
      <point x="610" y="430" type="curve" smooth="yes"/>
      <point x="541" y="430"/>
      <point x="68" y="77"/>
      <point x="58" y="13" type="curve"/>
      <point x="91" y="-28" type="line"/>
      <point x="165" y="-16"/>
      <point x="233" y="67"/>
      <point x="283" y="69" type="curve"/>
      <point x="351" y="110"/>
      <point x="680" y="295"/>
    </contour>
  </outline>
</glyph>
<glyph name="uni030F" format="1">
  <advance width="1183"/>
  <unicode hex="030F"/>
  <outline>
    <contour>
      <point x="510" y="364" type="curve" smooth="yes"/>
      <point x="510" y="295"/>
      <point x="839" y="110"/>
      <point x="907" y="69" type="curve"/>
      <point x="957" y="67"/>
      <point x="1025" y="-16"/>
      <point x="1099" y="-28" type="curve"/>
      <point x="1132" y="13" type="line"/>
      <point x="1122" y="77"/>
      <point x="649" y="430"/>
      <point x="580" y="430" type="curve" smooth="yes"/>
      <point x="544" y="430"/>
      <point x="510" y="402"/>
    </contour>
    <contour>
      <point x="734" y="-19" type="curve"/>
      <point x="768" y="-19"/>
      <point x="784" y="9"/>
      <point x="784" y="40" type="curve" smooth="yes"/>
      <point x="784" y="92"/>
      <point x="228" y="460"/>
      <point x="150" y="460" type="curve" smooth="yes"/>
      <point x="105" y="460"/>
      <point x="69" y="420"/>
      <point x="58" y="380" type="curve"/>
      <point x="77" y="346" type="line"/>
      <point x="302" y="259"/>
      <point x="526" y="106"/>
    </contour>
  </outline>
</glyph>
<glyph name="endash" format="1">
  <advance width="684"/>
  <unicode hex="2013"/>
  <outline>
    <contour>
      <point x="274" y="737" type="curve"/>
      <point x="103" y="737" type="line" smooth="yes"/>
      <point x="75" y="737"/>
      <point x="57" y="719"/>
      <point x="57" y="691" type="curve" smooth="yes"/>
      <point x="57" y="649"/>
      <point x="108" y="646"/>
      <point x="139" y="646" type="curve" smooth="yes"/>
      <point x="327" y="646"/>
      <point x="514" y="636"/>
      <point x="702" y="636" type="curve" smooth="yes"/>
      <point x="730" y="636"/>
      <point x="750" y="654"/>
      <point x="750" y="683" type="curve" smooth="yes"/>
      <point x="750" y="731"/>
      <point x="602" y="741"/>
      <point x="469" y="741" type="curve" smooth="yes"/>
      <point x="383" y="741"/>
      <point x="303" y="737"/>
    </contour>
  </outline>
</glyph>
<glyph name="quotedblbase" format="1">
  <advance width="603"/>
  <unicode hex="201E"/>
  <outline>
    <contour>
      <point x="286" y="-174" type="line"/>
      <point x="341" y="-201" type="line"/>
      <point x="347" y="-201" type="line" smooth="yes"/>
      <point x="449" y="-201"/>
      <point x="534" y="-3"/>
      <point x="534" y="83" type="curve" smooth="yes"/>
      <point x="534" y="134"/>
      <point x="496" y="184"/>
      <point x="443" y="184" type="curve" smooth="yes"/>
      <point x="395" y="184"/>
      <point x="342" y="149"/>
      <point x="342" y="97" type="curve" smooth="yes"/>
      <point x="342" y="56"/>
      <point x="367" y="19"/>
      <point x="400" y="-4" type="curve"/>
      <point x="390" y="-52"/>
      <point x="333" y="-100"/>
      <point x="296" y="-130" type="curve"/>
    </contour>
    <contour>
      <point x="102" y="-197" type="line"/>
      <point x="109" y="-197" type="line" smooth="yes"/>
      <point x="219" y="-197"/>
      <point x="309" y="-12"/>
      <point x="309" y="83" type="curve" smooth="yes"/>
      <point x="309" y="134"/>
      <point x="271" y="184"/>
      <point x="218" y="184" type="curve" smooth="yes"/>
      <point x="169" y="184"/>
      <point x="116" y="150"/>
      <point x="116" y="97" type="curve" smooth="yes"/>
      <point x="116" y="55"/>
      <point x="142" y="20"/>
      <point x="175" y="-4" type="curve"/>
      <point x="167" y="-44"/>
      <point x="80" y="-114"/>
      <point x="56" y="-164" type="curve"/>
    </contour>
  </outline>
</glyph>
